<svg xmlns="http://www.w3.org/2000/svg" data-name="Layer 1" viewBox="0 0 168 168"><path fill="#0bceb2" d="M107 34.44677H53a4.00427 4.00427 0 0 0-4 4v18a4.00427 4.00427 0 0 0 4 4h54a4.00427 4.00427 0 0 0 4-4v-18A4.00427 4.00427 0 0 0 107 34.44677zm-54 22v-18h54l.00244 18zM64 77.44677H52a3.00328 3.00328 0 0 0-3 3v12a3.00328 3.00328 0 0 0 3 3H64a3.00328 3.00328 0 0 0 3-3v-12A3.00328 3.00328 0 0 0 64 77.44677zm-1 14H53v-10H63z"/><path fill="#2d4356" d="M86,77.44677H74a3.00328,3.00328,0,0,0-3,3v12a3.00328,3.00328,0,0,0,3,3H86a3.00328,3.00328,0,0,0,3-3v-12A3.00328,3.00328,0,0,0,86,77.44677Zm-1,14H75v-10H85Z"/><path fill="#0bceb2" d="M108,77.44677H96a3.00328,3.00328,0,0,0-3,3v12a3.00328,3.00328,0,0,0,3,3h12a3.00328,3.00328,0,0,0,3-3v-12A3.00328,3.00328,0,0,0,108,77.44677Zm-1,14H97v-10h10Z"/><path fill="#2d4356" d="M64,99.44677H52a3.00328,3.00328,0,0,0-3,3v12a3.00328,3.00328,0,0,0,3,3H64a3.00328,3.00328,0,0,0,3-3v-12A3.00328,3.00328,0,0,0,64,99.44677Zm-1,14H53v-10H63Z"/><path fill="#0bceb2" d="M86,99.44677H74a3.00328,3.00328,0,0,0-3,3v12a3.00328,3.00328,0,0,0,3,3H86a3.00328,3.00328,0,0,0,3-3v-12A3.00328,3.00328,0,0,0,86,99.44677Zm-1,14H75v-10H85Z"/><path fill="#2d4356" d="M108,99.44677H96a3.00328,3.00328,0,0,0-3,3v34a3.00328,3.00328,0,0,0,3,3h12a3.00328,3.00328,0,0,0,3-3v-34A3.00328,3.00328,0,0,0,108,99.44677Zm-1,36H97v-32h10Z"/><path fill="#0bceb2" d="M64,121.44677H52a3.00328,3.00328,0,0,0-3,3v12a3.00328,3.00328,0,0,0,3,3H64a3.00328,3.00328,0,0,0,3-3v-12A3.00328,3.00328,0,0,0,64,121.44677Zm-1,14H53v-10H63Z"/><path fill="#2d4356" d="M86,121.44677H74a3.00328,3.00328,0,0,0-3,3v12a3.00328,3.00328,0,0,0,3,3H86a3.00328,3.00328,0,0,0,3-3v-12A3.00328,3.00328,0,0,0,86,121.44677Zm-1,14H75v-10H85Z"/><path fill="#0bceb2" d="M109 67.44677h-4a2 2 0 0 0 0 4h4a2 2 0 0 0 0-4zM97 71.44677a2 2 0 0 0 0-4H93a2 2 0 0 0 0 4zM59 42.44677a2.0001 2.0001 0 0 0-2 2v6a2 2 0 0 0 4 0v-6A2.0001 2.0001 0 0 0 59 42.44677z"/><circle cx="2" cy="149.447" r="2" fill="#2d4356"/><path fill="#2d4356" d="M11 147.44677H8a2 2 0 0 0 0 4h3a2 2 0 0 0 0-4zM160 147.44677h-3a2 2 0 0 0 0 4h3a2 2 0 0 0 0-4z"/><circle cx="166" cy="149.447" r="2" fill="#2d4356"/><path fill="#0bceb2" d="M118.15387 155.44677h-8.30774a2.00641 2.00641 0 0 0 0 4h8.30774a2.00641 2.00641 0 0 0 0-4zM58.15387 155.44677H49.84613a2.00641 2.00641 0 0 0 0 4h8.30774a2.00641 2.00641 0 0 0 0-4zM104 155.44677H64a2 2 0 0 0 0 4H79.94v2H72a2 2 0 0 0 0 4H97a2 2 0 0 0 0-4H88.06v-2H104a2 2 0 0 0 0-4z"/><path fill="#2d4356" d="M150.72131 147.44677H131V88.88427a3.75085 3.75085 0 0 0-4-3.4375h-4v-58a4 4 0 0 0-4-4H41a4 4 0 0 0-4 4v120H17.27869a2.017 2.017 0 1 0 0 4H150.72131a2.017 2.017 0 1 0 0-4zM41 147.44677v-120h78v120zm82 0v-58h4v58zM110 19.86344a3 3 0 1 0-3-3A3.00344 3.00344 0 0 0 110 19.86344zm0-4.5a1.5 1.5 0 1 1-1.5 1.5A1.50148 1.50148 0 0 1 110 15.36344zM162 65.44677a2 2 0 1 0 2 2A2.00229 2.00229 0 0 0 162 65.44677zm0 3a1 1 0 1 1 1-1A1.001 1.001 0 0 1 162 68.44677z"/><path fill="#2d4356" d="M131 60.44677a2 2 0 1 0 2 2A2.00229 2.00229 0 0 0 131 60.44677zm0 3a1 1 0 1 1 1-1A1.001 1.001 0 0 1 131 63.44677zM158.30471 5.18668a2 2 0 1 0 2 2A2.00229 2.00229 0 0 0 158.30471 5.18668zm0 3a1 1 0 1 1 1-1A1.001 1.001 0 0 1 158.30471 8.18668zM32.33333 33.56981a2 2 0 1 0-2 2A2.00229 2.00229 0 0 0 32.33333 33.56981zm-3 0a1 1 0 1 1 1 1A1.001 1.001 0 0 1 29.33333 33.56981z"/><polygon fill="#0bceb2" points="10.888 68.458 12.375 66.503 11.436 65.971 10.481 68.161 10.45 68.161 9.48 65.986 8.525 66.534 9.996 68.443 9.996 68.474 7.695 68.177 7.695 69.24 10.011 68.943 10.011 68.975 8.525 70.883 9.416 71.447 10.434 69.24 10.465 69.24 11.404 71.431 12.39 70.868 10.888 68.99 10.888 68.959 13.25 69.24 13.25 68.177 10.888 68.489 10.888 68.458"/><polygon fill="#0bceb2" points="10.207 9.6 9.351 10.699 9.864 11.024 10.451 9.753 10.468 9.753 11.009 11.014 11.577 10.69 10.712 9.609 10.712 9.591 12.072 9.753 12.072 9.14 10.712 9.32 10.712 9.302 11.568 8.176 11.027 7.87 10.478 9.131 10.459 9.131 9.901 7.879 9.351 8.194 10.198 9.294 10.198 9.312 8.873 9.14 8.873 9.753 10.207 9.582 10.207 9.6"/><polygon fill="#0bceb2" points="149.448 37.777 149.448 36.733 147.132 37.04 147.132 37.01 148.59 35.091 147.669 34.57 146.733 36.718 146.702 36.718 145.751 34.585 144.813 35.122 146.257 36.995 146.257 37.025 144 36.733 144 37.777 146.272 37.486 146.272 37.516 144.813 39.388 145.688 39.941 146.687 37.777 146.717 37.777 147.638 39.926 148.605 39.373 147.132 37.531 147.132 37.501 149.448 37.777"/><polygon fill="#0bceb2" points="71.351 4.658 72.609 3.003 71.815 2.553 71.008 4.406 70.981 4.406 70.16 2.566 69.352 3.03 70.597 4.645 70.597 4.671 68.65 4.42 68.65 5.32 70.61 5.069 70.61 5.095 69.352 6.71 70.106 7.187 70.968 5.32 70.994 5.32 71.788 7.173 72.622 6.697 71.351 5.108 71.351 5.082 73.35 5.32 73.35 4.42 71.351 4.684 71.351 4.658"/></svg>